<svg xmlns="http://www.w3.org/2000/svg" viewBox="0 0 512 512">
  <rect width="512" height="512" fill="#0078d4"/>
  
  <!-- Curly Brace -->
  <path d="M140 128 C 120 128, 100 148, 100 168 L 100 236 C 100 256, 80 256, 60 256 C 80 256, 100 256, 100 276 L 100 344 C 100 364, 120 384, 140 384" stroke="white" stroke-width="24" fill="none" stroke-linecap="round"/>
  
  <!-- Grid Lines transforming -->
  <line x1="180" y1="160" x2="440" y2="160" stroke="white" stroke-width="12" stroke-opacity="0.8"/>
  <line x1="180" y1="220" x2="440" y2="220" stroke="white" stroke-width="12" stroke-opacity="0.8"/>
  <line x1="180" y1="290" x2="440" y2="290" stroke="white" stroke-width="12" stroke-opacity="0.8"/>
  <line x1="180" y1="350" x2="440" y2="350" stroke="white" stroke-width="12" stroke-opacity="0.8"/>
  
  <!-- Vertical Grid Lines -->
  <line x1="260" y1="140" x2="260" y2="370" stroke="white" stroke-width="8" stroke-opacity="0.4"/>
  <line x1="350" y1="140" x2="350" y2="370" stroke="white" stroke-width="8" stroke-opacity="0.4"/>
  
  <!-- Highlight Cell -->
  <rect x="260" y="220" width="90" height="70" fill="white" fill-opacity="0.2"/>
</svg>
